<svg xmlns="http://www.w3.org/2000/svg" width="860" height="430" viewBox="0 0 860 430">
<rect width="100%" height="100%" fill="#fff"/>
<text x="24" y="32" font-family="Inter,Arial,sans-serif" font-size="22" font-weight="700" fill="#1f2933">Culmen length versus wing length</text>
<rect x="70" y="55" width="760" height="320" fill="#f8fafc" stroke="#d8e0e8"/>
<circle cx="336.3" cy="95.3" r="2.4" fill="#2a9d8f" opacity="0.45"/>
<circle cx="743.1" cy="55.0" r="2.4" fill="#2a9d8f" opacity="0.45"/>
<circle cx="758.0" cy="68.4" r="2.4" fill="#2a9d8f" opacity="0.45"/>
<circle cx="651.7" cy="63.1" r="2.4" fill="#2a9d8f" opacity="0.45"/>
<circle cx="758.0" cy="68.4" r="2.4" fill="#2a9d8f" opacity="0.45"/>
<circle cx="739.7" cy="106.1" r="2.4" fill="#2a9d8f" opacity="0.45"/>
<circle cx="772.9" cy="111.5" r="2.4" fill="#2a9d8f" opacity="0.45"/>
<circle cx="830.0" cy="108.8" r="2.4" fill="#2a9d8f" opacity="0.45"/>
<circle cx="739.7" cy="84.6" r="2.4" fill="#2a9d8f" opacity="0.45"/>
<circle cx="195.7" cy="288.9" r="2.4" fill="#2a9d8f" opacity="0.45"/>
<circle cx="120.3" cy="280.9" r="2.4" fill="#2a9d8f" opacity="0.45"/>
<circle cx="146.6" cy="262.1" r="2.4" fill="#2a9d8f" opacity="0.45"/>
<circle cx="137.4" cy="313.2" r="2.4" fill="#2a9d8f" opacity="0.45"/>
<circle cx="97.4" cy="291.6" r="2.4" fill="#2a9d8f" opacity="0.45"/>
<circle cx="142.0" cy="283.6" r="2.4" fill="#2a9d8f" opacity="0.45"/>
<circle cx="138.6" cy="294.3" r="2.4" fill="#2a9d8f" opacity="0.45"/>
<circle cx="128.3" cy="299.7" r="2.4" fill="#2a9d8f" opacity="0.45"/>
<circle cx="326.0" cy="224.4" r="2.4" fill="#2a9d8f" opacity="0.45"/>
<circle cx="281.4" cy="240.5" r="2.4" fill="#2a9d8f" opacity="0.45"/>
<circle cx="207.1" cy="245.9" r="2.4" fill="#2a9d8f" opacity="0.45"/>
<circle cx="287.1" cy="245.9" r="2.4" fill="#2a9d8f" opacity="0.45"/>
<circle cx="198.0" cy="283.6" r="2.4" fill="#2a9d8f" opacity="0.45"/>
<circle cx="167.1" cy="270.1" r="2.4" fill="#2a9d8f" opacity="0.45"/>
<circle cx="161.4" cy="272.8" r="2.4" fill="#2a9d8f" opacity="0.45"/>
<circle cx="132.9" cy="283.6" r="2.4" fill="#2a9d8f" opacity="0.45"/>
<circle cx="123.7" cy="307.0" r="2.4" fill="#2a9d8f" opacity="0.45"/>
<circle cx="113.4" cy="68.4" r="2.4" fill="#2a9d8f" opacity="0.45"/>
<circle cx="106.6" cy="95.3" r="2.4" fill="#2a9d8f" opacity="0.45"/>
<circle cx="206.0" cy="68.4" r="2.4" fill="#2a9d8f" opacity="0.45"/>
<circle cx="218.6" cy="299.7" r="2.4" fill="#2a9d8f" opacity="0.45"/>
<circle cx="198.0" cy="283.6" r="2.4" fill="#2a9d8f" opacity="0.45"/>
<circle cx="343.1" cy="270.1" r="2.4" fill="#2a9d8f" opacity="0.45"/>
<circle cx="96.3" cy="305.1" r="2.4" fill="#2a9d8f" opacity="0.45"/>
<circle cx="355.7" cy="224.4" r="2.4" fill="#2a9d8f" opacity="0.45"/>
<circle cx="369.4" cy="216.3" r="2.4" fill="#2a9d8f" opacity="0.45"/>
<circle cx="324.9" cy="237.9" r="2.4" fill="#2a9d8f" opacity="0.45"/>
<circle cx="473.4" cy="229.8" r="2.4" fill="#2a9d8f" opacity="0.45"/>
<circle cx="324.9" cy="264.2" r="2.4" fill="#2a9d8f" opacity="0.45"/>
<circle cx="307.7" cy="246.7" r="2.4" fill="#2a9d8f" opacity="0.45"/>
<circle cx="346.6" cy="247.5" r="2.4" fill="#2a9d8f" opacity="0.45"/>
<circle cx="338.6" cy="254.0" r="2.4" fill="#2a9d8f" opacity="0.45"/>
<circle cx="139.7" cy="369.6" r="2.4" fill="#2a9d8f" opacity="0.45"/>
<circle cx="131.7" cy="369.6" r="2.4" fill="#2a9d8f" opacity="0.45"/>
<circle cx="73.4" cy="375.0" r="2.4" fill="#2a9d8f" opacity="0.45"/>
<circle cx="70.0" cy="372.3" r="2.4" fill="#2a9d8f" opacity="0.45"/>
<circle cx="288.3" cy="219.0" r="2.4" fill="#2a9d8f" opacity="0.45"/>
<circle cx="463.1" cy="149.1" r="2.4" fill="#2a9d8f" opacity="0.45"/>
<circle cx="198.0" cy="229.8" r="2.4" fill="#2a9d8f" opacity="0.45"/>
<circle cx="300.9" cy="232.5" r="2.4" fill="#2a9d8f" opacity="0.45"/>
<circle cx="287.1" cy="321.2" r="2.4" fill="#2a9d8f" opacity="0.45"/>
<circle cx="250.6" cy="293.5" r="2.4" fill="#2a9d8f" opacity="0.45"/>
<circle cx="209.4" cy="294.3" r="2.4" fill="#2a9d8f" opacity="0.45"/>
<circle cx="224.3" cy="288.9" r="2.4" fill="#2a9d8f" opacity="0.45"/>
<circle cx="304.3" cy="293.3" r="2.4" fill="#2a9d8f" opacity="0.45"/>
<circle cx="260.9" cy="270.7" r="2.4" fill="#2a9d8f" opacity="0.45"/>
<circle cx="337.4" cy="279.5" r="2.4" fill="#2a9d8f" opacity="0.45"/>
<circle cx="183.1" cy="289.8" r="2.4" fill="#2a9d8f" opacity="0.45"/>
<circle cx="362.6" cy="288.9" r="2.4" fill="#2a9d8f" opacity="0.45"/>
<circle cx="331.7" cy="205.6" r="2.4" fill="#2a9d8f" opacity="0.45"/>
<circle cx="327.1" cy="206.9" r="2.4" fill="#2a9d8f" opacity="0.45"/>
<circle cx="288.3" cy="215.0" r="2.4" fill="#2a9d8f" opacity="0.45"/>
<circle cx="306.6" cy="226.3" r="2.4" fill="#2a9d8f" opacity="0.45"/>
<circle cx="262.0" cy="288.9" r="2.4" fill="#2a9d8f" opacity="0.45"/>
<circle cx="240.3" cy="297.0" r="2.4" fill="#2a9d8f" opacity="0.45"/>
<circle cx="304.3" cy="280.9" r="2.4" fill="#2a9d8f" opacity="0.45"/>
<circle cx="297.4" cy="283.6" r="2.4" fill="#2a9d8f" opacity="0.45"/>
<circle cx="385.4" cy="248.6" r="2.4" fill="#2a9d8f" opacity="0.45"/>
<circle cx="287.1" cy="288.9" r="2.4" fill="#2a9d8f" opacity="0.45"/>
<circle cx="259.7" cy="270.1" r="2.4" fill="#2a9d8f" opacity="0.45"/>
<circle cx="220.9" cy="270.1" r="2.4" fill="#2a9d8f" opacity="0.45"/>
<circle cx="257.4" cy="262.1" r="2.4" fill="#2a9d8f" opacity="0.45"/>
<circle cx="319.1" cy="270.1" r="2.4" fill="#2a9d8f" opacity="0.45"/>
<circle cx="249.4" cy="259.4" r="2.4" fill="#2a9d8f" opacity="0.45"/>
<circle cx="249.4" cy="254.0" r="2.4" fill="#2a9d8f" opacity="0.45"/>
<circle cx="231.1" cy="243.2" r="2.4" fill="#2a9d8f" opacity="0.45"/>
<circle cx="306.6" cy="337.4" r="2.4" fill="#2a9d8f" opacity="0.45"/>
<circle cx="283.7" cy="337.4" r="2.4" fill="#2a9d8f" opacity="0.45"/>
<circle cx="308.9" cy="329.3" r="2.4" fill="#2a9d8f" opacity="0.45"/>
<circle cx="312.3" cy="315.8" r="2.4" fill="#2a9d8f" opacity="0.45"/>
<text x="70" y="412" font-family="Inter,Arial,sans-serif" font-size="12" fill="#607080">x: 43.5 to 110.0; y: 66.0 to 185.0</text>
</svg>