<svg xmlns="http://www.w3.org/2000/svg" width="860" height="430" viewBox="0 0 860 430">
<rect width="100%" height="100%" fill="#fff"/>
<text x="24" y="32" font-family="Inter,Arial,sans-serif" font-size="22" font-weight="700" fill="#1f2933">Most common wreck classifications</text>
<text x="198" y="72.8" text-anchor="end" font-family="Inter,Arial,sans-serif" font-size="13" fill="#34495e">Unknown</text>
<rect x="210" y="60.1" width="610.0" height="16.4" rx="3" fill="#254e70"/>
<text x="826.0" y="72.8" font-family="Inter,Arial,sans-serif" font-size="12" fill="#34495e">7941</text>
<text x="198" y="101.2" text-anchor="end" font-family="Inter,Arial,sans-serif" font-size="13" fill="#34495e">Schooner</text>
<rect x="210" y="88.4" width="121.8" height="16.4" rx="3" fill="#254e70"/>
<text x="337.8" y="101.2" font-family="Inter,Arial,sans-serif" font-size="12" fill="#34495e">1585</text>
<text x="198" y="129.5" text-anchor="end" font-family="Inter,Arial,sans-serif" font-size="13" fill="#34495e">Steamship</text>
<rect x="210" y="116.8" width="95.7" height="16.4" rx="3" fill="#254e70"/>
<text x="311.7" y="129.5" font-family="Inter,Arial,sans-serif" font-size="12" fill="#34495e">1246</text>
<text x="198" y="157.8" text-anchor="end" font-family="Inter,Arial,sans-serif" font-size="13" fill="#34495e">Brig</text>
<rect x="210" y="145.1" width="72.5" height="16.4" rx="3" fill="#254e70"/>
<text x="288.5" y="157.8" font-family="Inter,Arial,sans-serif" font-size="12" fill="#34495e">944</text>
<text x="198" y="186.2" text-anchor="end" font-family="Inter,Arial,sans-serif" font-size="13" fill="#34495e">Barque</text>
<rect x="210" y="173.4" width="60.9" height="16.4" rx="3" fill="#254e70"/>
<text x="276.9" y="186.2" font-family="Inter,Arial,sans-serif" font-size="12" fill="#34495e">793</text>
<text x="198" y="214.5" text-anchor="end" font-family="Inter,Arial,sans-serif" font-size="13" fill="#34495e">Ship</text>
<rect x="210" y="201.8" width="54.0" height="16.4" rx="3" fill="#254e70"/>
<text x="270.0" y="214.5" font-family="Inter,Arial,sans-serif" font-size="12" fill="#34495e">703</text>
<text x="198" y="242.8" text-anchor="end" font-family="Inter,Arial,sans-serif" font-size="13" fill="#34495e">Sloop</text>
<rect x="210" y="230.1" width="30.7" height="16.4" rx="3" fill="#254e70"/>
<text x="246.7" y="242.8" font-family="Inter,Arial,sans-serif" font-size="12" fill="#34495e">400</text>
<text x="198" y="271.2" text-anchor="end" font-family="Inter,Arial,sans-serif" font-size="13" fill="#34495e">Smack</text>
<rect x="210" y="258.4" width="29.2" height="16.4" rx="3" fill="#254e70"/>
<text x="245.2" y="271.2" font-family="Inter,Arial,sans-serif" font-size="12" fill="#34495e">380</text>
<text x="198" y="299.5" text-anchor="end" font-family="Inter,Arial,sans-serif" font-size="13" fill="#34495e">Brigantine</text>
<rect x="210" y="286.8" width="24.1" height="16.4" rx="3" fill="#254e70"/>
<text x="240.1" y="299.5" font-family="Inter,Arial,sans-serif" font-size="12" fill="#34495e">314</text>
<text x="198" y="327.9" text-anchor="end" font-family="Inter,Arial,sans-serif" font-size="13" fill="#34495e">Boat</text>
<rect x="210" y="315.1" width="22.5" height="16.4" rx="3" fill="#254e70"/>
<text x="238.5" y="327.9" font-family="Inter,Arial,sans-serif" font-size="12" fill="#34495e">293</text>
<text x="198" y="356.2" text-anchor="end" font-family="Inter,Arial,sans-serif" font-size="13" fill="#34495e">Sailing Ship</text>
<rect x="210" y="343.4" width="16.1" height="16.4" rx="3" fill="#254e70"/>
<text x="232.1" y="356.2" font-family="Inter,Arial,sans-serif" font-size="12" fill="#34495e">210</text>
<text x="198" y="384.5" text-anchor="end" font-family="Inter,Arial,sans-serif" font-size="13" fill="#34495e">Submarine</text>
<rect x="210" y="371.8" width="14.7" height="16.4" rx="3" fill="#254e70"/>
<text x="230.7" y="384.5" font-family="Inter,Arial,sans-serif" font-size="12" fill="#34495e">192</text>
</svg>